<svg viewBox="-0.5 -0.5 64 64" xmlns="http://www.w3.org/2000/svg" height="64" width="64"><path d="M13.781 58.406a17.719 1.969 0 1 0 35.438 0 17.719 1.969 0 1 0 -35.438 0Z" fill="#45413c" opacity=".15" stroke-width="1"></path><path d="M53.655 29.859a4.292 4.292 0 0 0 -3.675 -4.239C48.182 16.236 40.596 9.188 31.5 9.188S14.818 16.236 13.02 25.62a4.292 4.292 0 0 0 0 8.492C14.818 43.483 22.404 50.531 31.5 50.531S48.182 43.483 49.98 34.125a4.305 4.305 0 0 0 3.675 -4.266Z" fill="#ffe500" stroke-width="1"></path><path d="M12.311 30.083a1.313 1.313 0 0 0 0.893 -0.945 18.834 18.834 0 0 1 36.593 0 1.313 1.313 0 0 0 0.893 0.945 4.253 4.253 0 0 1 2.428 1.851 4.239 4.239 0 0 0 0.538 -2.074 4.292 4.292 0 0 0 -3.675 -4.239C48.182 16.236 40.596 9.188 31.5 9.188S14.818 16.236 13.02 25.62a4.292 4.292 0 0 0 -3.675 4.239 4.239 4.239 0 0 0 0.538 2.074 4.253 4.253 0 0 1 2.428 -1.851Z" fill="#fff48c" stroke-width="1"></path><path d="M53.655 29.859a4.292 4.292 0 0 0 -3.675 -4.239C48.182 16.236 40.596 9.188 31.5 9.188S14.818 16.236 13.02 25.62a4.292 4.292 0 0 0 0 8.492C14.818 43.483 22.404 50.531 31.5 50.531S48.182 43.483 49.98 34.125a4.305 4.305 0 0 0 3.675 -4.266Z" fill="none" stroke="#45413c" stroke-linecap="round" stroke-linejoin="round" stroke-width="1"></path><path d="M20.409 28.744a1.575 1.575 0 1 0 1.575 -1.575 1.575 1.575 0 0 0 -1.575 1.575Z" fill="#45413c" stroke="#45413c" stroke-linecap="round" stroke-linejoin="round" stroke-width="1"></path><path d="M42.591 28.744a1.575 1.575 0 1 1 -1.575 -1.575 1.575 1.575 0 0 1 1.575 1.575Z" fill="#45413c" stroke="#45413c" stroke-linecap="round" stroke-linejoin="round" stroke-width="1"></path><path d="M25.712 38.325a0.906 0.906 0 0 0 -0.682 0.315 0.893 0.893 0 0 0 -0.21 0.722 6.772 6.772 0 0 0 13.361 0 0.893 0.893 0 0 0 -0.21 -0.722 0.906 0.906 0 0 0 -0.682 -0.315Z" fill="#ff6242" stroke-width="1"></path><path d="M31.5 41.108a8.256 8.256 0 0 0 -5.145 1.575 6.838 6.838 0 0 0 10.29 0 8.256 8.256 0 0 0 -5.145 -1.575Z" fill="#ffa694" stroke-width="1"></path><path d="M25.712 38.325a0.906 0.906 0 0 0 -0.682 0.315 0.893 0.893 0 0 0 -0.21 0.722 6.772 6.772 0 0 0 13.361 0 0.893 0.893 0 0 0 -0.21 -0.722 0.906 0.906 0 0 0 -0.682 -0.315Z" fill="none" stroke="#45413c" stroke-linecap="round" stroke-linejoin="round" stroke-width="1"></path><path d="M17.338 35.451a2.034 1.221 0 1 0 4.069 0 2.034 1.221 0 1 0 -4.069 0Z" fill="#ffaa54" stroke-width="1"></path><path d="M41.593 35.451a2.034 1.221 0 1 0 4.069 0 2.034 1.221 0 1 0 -4.069 0Z" fill="#ffaa54" stroke-width="1"></path><path d="M37.446 13.912a5.906 5.906 0 0 0 -10.054 -4.226 3.57 3.57 0 0 1 1.129 -0.184 3.504 3.504 0 1 1 -2.783 5.644 5.919 5.919 0 0 0 11.707 -1.234Z" fill="#724f3d" stroke-width="1"></path><path d="M31.658 11.445a5.932 5.932 0 0 1 4.397 5.723 4.869 4.869 0 0 1 0 0.617 5.919 5.919 0 0 0 -8.623 -8.098 3.57 3.57 0 0 1 1.129 -0.184 3.491 3.491 0 0 1 3.097 1.942Z" fill="#a86c4d" stroke-width="1"></path><path d="M37.446 13.912a5.906 5.906 0 0 0 -10.054 -4.226 3.57 3.57 0 0 1 1.129 -0.184 3.504 3.504 0 1 1 -2.783 5.644 5.919 5.919 0 0 0 11.707 -1.234Z" fill="none" stroke="#45413c" stroke-linecap="round" stroke-linejoin="round" stroke-width="1"></path></svg>