<svg viewBox="-0.5 -0.5 64 64" xmlns="http://www.w3.org/2000/svg" height="64" width="64"><path d="M8.531 59.719a22.969 1.969 0 1 0 45.938 0 22.969 1.969 0 1 0 -45.938 0Z" fill="#45413c" opacity=".15" stroke-width="1"></path><path d="M8.531 31.5c0 4.712 10.29 8.531 22.969 8.531s22.969 -3.819 22.969 -8.531v19.688c0 4.712 -10.29 8.531 -22.969 8.531S8.531 55.899 8.531 51.188Z" fill="#bf8256" stroke="#45413c" stroke-linecap="round" stroke-linejoin="round" stroke-width="1"></path><path d="M8.531 39.375c0 4.712 10.29 8.531 22.969 8.531s22.969 -3.819 22.969 -8.531v6.563c0 4.712 -10.29 8.531 -22.969 8.531S8.531 50.649 8.531 45.938Z" fill="#ffe3cf" stroke="#45413c" stroke-linecap="round" stroke-linejoin="round" stroke-width="1"></path><path d="M40.031 43.969a0.656 0.656 0 0 1 1.313 0 3.281 3.281 0 0 0 6.563 0v-2.625a1.969 1.969 0 0 1 3.938 0 1.969 1.969 0 0 0 3.938 0V31.5c0 -4.712 -10.867 -8.531 -24.281 -8.531S7.219 26.788 7.219 31.5v10.5a1.969 1.969 0 0 0 3.938 0 1.969 1.969 0 0 1 3.938 0v3.938a3.281 3.281 0 0 0 6.563 0 1.969 1.969 0 0 1 3.938 0v1.313a1.969 1.969 0 0 0 3.938 0v-0.656a3.281 3.281 0 0 1 6.563 0V48.563a1.969 1.969 0 0 0 3.938 0Z" fill="#ff6242" stroke-width="1"></path><path d="M31.5 26.25c9.726 0 18.375 1.313 23.73 3.452 -2.349 -3.846 -12.075 -6.733 -23.73 -6.733S10.119 25.856 7.77 29.702C13.125 27.563 21.774 26.25 31.5 26.25Z" fill="#ff866e" stroke-width="1"></path><path d="M40.031 43.969a0.656 0.656 0 0 1 1.313 0 3.281 3.281 0 0 0 6.563 0v-2.625a1.969 1.969 0 0 1 3.938 0 1.969 1.969 0 0 0 3.938 0V31.5c0 -4.712 -10.867 -8.531 -24.281 -8.531S7.219 26.788 7.219 31.5v10.5a1.969 1.969 0 0 0 3.938 0 1.969 1.969 0 0 1 3.938 0v3.938a3.281 3.281 0 0 0 6.563 0 1.969 1.969 0 0 1 3.938 0v1.313a1.969 1.969 0 0 0 3.938 0v-0.656a3.281 3.281 0 0 1 6.563 0V48.563a1.969 1.969 0 0 0 3.938 0Z" fill="none" stroke="#45413c" stroke-linecap="round" stroke-linejoin="round" stroke-width="1"></path><path d="M53.156 31.5c0 3.268 -9.699 5.906 -21.656 5.906S9.844 34.768 9.844 31.5" fill="none" stroke="#e04122" stroke-linecap="round" stroke-linejoin="round" stroke-width="1"></path><path d="M25.594 33.469v-10.5a1.313 1.313 0 0 0 -1.313 -1.313h-2.625a1.313 1.313 0 0 0 -1.313 1.313v10.5a2.848 2.848 0 0 0 2.625 1.313 2.848 2.848 0 0 0 2.625 -1.313Z" fill="#fffef2" stroke="#45413c" stroke-linecap="round" stroke-linejoin="round" stroke-width="1"></path><path d="M19.95 15.159a3.111 3.111 0 0 0 6.064 1.444c0.538 -2.271 -2.927 -2.625 -2.848 -6.011a6.563 6.563 0 0 0 -3.216 4.567Z" fill="#ffe500" stroke="#45413c" stroke-linecap="round" stroke-linejoin="round" stroke-width="1"></path><path d="M17.719 29.531v-10.5a1.313 1.313 0 0 0 -1.313 -1.313h-2.625a1.313 1.313 0 0 0 -1.313 1.313v10.5a2.848 2.848 0 0 0 2.625 1.313 2.848 2.848 0 0 0 2.625 -1.313Z" fill="#fffef2" stroke="#45413c" stroke-linecap="round" stroke-linejoin="round" stroke-width="1"></path><path d="M12.075 11.222a3.111 3.111 0 0 0 6.064 1.444c0.538 -2.271 -2.927 -2.625 -2.848 -6.011A6.563 6.563 0 0 0 12.075 11.222Z" fill="#ffe500" stroke="#45413c" stroke-linecap="round" stroke-linejoin="round" stroke-width="1"></path><path d="M50.531 29.531v-10.5a1.313 1.313 0 0 0 -1.313 -1.313h-2.625a1.313 1.313 0 0 0 -1.313 1.313v10.5a3.281 3.281 0 0 0 5.25 0Z" fill="#fffef2" stroke="#45413c" stroke-linecap="round" stroke-linejoin="round" stroke-width="1"></path><path d="M44.888 11.222a3.111 3.111 0 1 0 6.064 1.444c0.538 -2.271 -2.927 -2.625 -2.848 -6.011a6.563 6.563 0 0 0 -3.216 4.567Z" fill="#ffe500" stroke="#45413c" stroke-linecap="round" stroke-linejoin="round" stroke-width="1"></path><path d="M42.656 33.469v-10.5a1.313 1.313 0 0 0 -1.313 -1.313h-2.625a1.313 1.313 0 0 0 -1.313 1.313v10.5a2.848 2.848 0 0 0 2.625 1.313 2.848 2.848 0 0 0 2.625 -1.313Z" fill="#fffef2" stroke="#45413c" stroke-linecap="round" stroke-linejoin="round" stroke-width="1"></path><path d="M37.012 15.159a3.111 3.111 0 0 0 6.064 1.444c0.538 -2.271 -2.927 -2.625 -2.848 -6.011a6.563 6.563 0 0 0 -3.216 4.567Z" fill="#ffe500" stroke="#45413c" stroke-linecap="round" stroke-linejoin="round" stroke-width="1"></path><path d="M34.125 25.594v-10.5a1.313 1.313 0 0 0 -1.313 -1.313h-2.625a1.313 1.313 0 0 0 -1.313 1.313v10.5a2.848 2.848 0 0 0 2.625 1.313 2.848 2.848 0 0 0 2.625 -1.313Z" fill="#fffef2" stroke="#45413c" stroke-linecap="round" stroke-linejoin="round" stroke-width="1"></path><path d="M28.481 7.284a3.111 3.111 0 0 0 6.064 1.444c0.538 -2.271 -2.927 -2.625 -2.848 -6.011a6.563 6.563 0 0 0 -3.216 4.567Z" fill="#ffe500" stroke="#45413c" stroke-linecap="round" stroke-linejoin="round" stroke-width="1"></path></svg>