<svg xmlns="http://www.w3.org/2000/svg" fill="none" viewBox="0 0 24 24" height="32" width="32"><path stroke="#191919" stroke-linecap="round" stroke-linejoin="round" d="M.5 23.04h23"></path><path fill="#ffdda1" d="M1.5 12.96v6.24a1.967 1.967 0 0 0 2 1.92h17a1.967 1.967 0 0 0 2-1.92v-6.24"></path><path fill="#ffbc44" d="M20.5 18.587h-17a1.967 1.967 0 0 1-2-1.92V19.2a1.967 1.967 0 0 0 2 1.92h17a1.967 1.967 0 0 0 2-1.92v-2.533a1.967 1.967 0 0 1-2 1.92Z"></path><path stroke="#191919" stroke-linecap="round" stroke-linejoin="round" d="M1.5 12.96v6.24a1.967 1.967 0 0 0 2 1.92h17a1.967 1.967 0 0 0 2-1.92v-6.24"></path><path fill="#ffef5e" stroke="#191919" stroke-linecap="round" stroke-linejoin="round" d="M7 3.36A1.471 1.471 0 0 1 5.5 4.8 1.471 1.471 0 0 1 4 3.36a5.257 5.257 0 0 1 1.109-2.219.513.513 0 0 1 .782 0A5.24 5.24 0 0 1 7 3.36v0Z"></path><path fill="#ffef5e" stroke="#191919" stroke-linecap="round" stroke-linejoin="round" d="M20 3.36a1.5 1.5 0 1 1-3 0 5.257 5.257 0 0 1 1.109-2.219.514.514 0 0 1 .782 0A5.24 5.24 0 0 1 20 3.36v0Z"></path><path fill="#ffef5e" stroke="#191919" stroke-linecap="round" stroke-linejoin="round" d="M13.5 3.36a1.5 1.5 0 1 1-3 0 5.257 5.257 0 0 1 1.109-2.219.514.514 0 0 1 .782 0A5.24 5.24 0 0 1 13.5 3.36v0Z"></path><path fill="#ffffff" stroke="#191919" stroke-linecap="round" stroke-linejoin="round" d="M13 10.56h-2V7.2a.49.49 0 0 1 .5-.48h1a.49.49 0 0 1 .5.48v3.36Z"></path><path fill="#ffffff" stroke="#191919" stroke-linecap="round" stroke-linejoin="round" d="M6.5 10.56h-2V7.2a.49.49 0 0 1 .5-.48h1a.49.49 0 0 1 .5.48v3.36Z"></path><path fill="#ffffff" stroke="#191919" stroke-linecap="round" stroke-linejoin="round" d="M19.5 10.56h-2V7.2a.49.49 0 0 1 .5-.48h1a.49.49 0 0 1 .5.48v3.36Z"></path><path fill="#ffbfc5" d="M22.5 12.96a2.627 2.627 0 0 1-5.25 0 2.627 2.627 0 0 1-5.25 0 2.574 2.574 0 0 1-2.625 2.52 2.574 2.574 0 0 1-2.625-2.52 2.574 2.574 0 0 1-2.625 2.52A2.574 2.574 0 0 1 1.5 12.96v-1.44a.981.981 0 0 1 1-.96h19a.98.98 0 0 1 1 .96v1.44Z"></path><path fill="#ff808c" d="M2.5 12.658a.977.977 0 0 0-.954.74 2.593 2.593 0 0 0 2.579 2.082 2.574 2.574 0 0 0 2.625-2.52 2.574 2.574 0 0 0 2.625 2.52A2.574 2.574 0 0 0 12 12.96a2.627 2.627 0 0 0 5.25 0 2.632 2.632 0 0 0 5.2.438.977.977 0 0 0-.954-.74H2.5Z"></path><path stroke="#191919" stroke-linecap="round" stroke-linejoin="round" d="M12 12.96a2.574 2.574 0 0 1-2.625 2.52 2.574 2.574 0 0 1-2.625-2.52"></path><path stroke="#191919" stroke-linecap="round" stroke-linejoin="round" d="M6.75 12.96a2.574 2.574 0 0 1-2.625 2.52A2.574 2.574 0 0 1 1.5 12.96v-1.44a.981.981 0 0 1 1-.96h19a.98.98 0 0 1 1 .96v1.44a2.627 2.627 0 0 1-5.25 0 2.627 2.627 0 0 1-5.25 0"></path></svg>