<svg xmlns="http://www.w3.org/2000/svg" viewBox="-1.5 -1.5 80 80" height="80" width="80"><g><path d="M75.691 57.519c-0.501 -2.772 -7.815 -11.03 -15.4 -19.019 7.7 -7.989 14.938 -16.247 15.4 -19.019C77.289 16.189 73.034 11.55 69.3 7.7S60.811 -0.289 57.519 1.309c-2.772 0.501 -11.03 7.815 -19.019 15.4 -7.989 -7.7 -16.247 -14.938 -19.019 -15.4C16.189 -0.289 11.55 3.966 7.7 7.7S-0.289 16.189 1.309 19.481c0.501 2.772 7.815 11.03 15.4 19.019 -7.7 7.989 -14.938 16.247 -15.4 19.019C-0.289 60.811 3.966 65.546 7.7 69.3s8.489 7.989 11.781 6.391c2.772 -0.501 11.03 -7.815 19.019 -15.4 7.989 7.7 16.247 14.938 19.019 15.4 3.292 1.598 8.046 -2.656 11.781 -6.391s7.989 -8.489 6.391 -11.781Z" fill="#f65a10" stroke="#231f20" stroke-miterlimit="10" stroke-width="3"></path><path d="M53.9 10.299c4.562 -3.85 5.371 -4.043 8.027 -1.925" fill="none" stroke="#ffffff" stroke-linecap="round" stroke-miterlimit="10" stroke-width="3"></path></g></svg>