<svg xmlns="http://www.w3.org/2000/svg" fill="none" viewBox="0 0 25 25" height="32" width="32" stroke-width="1"><path fill="#66e1ff" d="M12.414 3.588a8.839 8.839 0 0 0-7.25-.566 7.381 7.381 0 0 0-3.8 2.994 5.611 5.611 0 0 0-.7 4.3 6.578 6.578 0 0 0 2.855 3.861 87.418 87.418 0 0 0-.746 2.236c.859-.448 1.709-.912 2.564-1.368a9.5 9.5 0 0 0 3.2.456 5.513 5.513 0 0 1-.22-2.584 5.508 5.508 0 0 1 1.75-3.11 7.57 7.57 0 0 1 5.684-1.867 6.627 6.627 0 0 0-3.338-4.354l.001.002Z"></path><path fill="#c2f3ff" d="M.688 10.4c.146-.557.372-1.09.673-1.581a7.38 7.38 0 0 1 3.8-2.994 8.842 8.842 0 0 1 7.25.566 7.1 7.1 0 0 1 1.933 1.577 8.35 8.35 0 0 1 1.405-.024 6.627 6.627 0 0 0-3.338-4.354 8.84 8.84 0 0 0-7.25-.566 7.38 7.38 0 0 0-3.8 2.994 5.611 5.611 0 0 0-.7 4.3c.01.027.02.053.027.082Z"></path><path stroke="#191919" stroke-linecap="round" stroke-linejoin="round" d="M12.414 3.588a8.839 8.839 0 0 0-7.25-.566 7.381 7.381 0 0 0-3.8 2.994 5.611 5.611 0 0 0-.7 4.3 6.578 6.578 0 0 0 2.855 3.861 87.418 87.418 0 0 0-.746 2.236c.859-.448 1.709-.912 2.564-1.368a9.5 9.5 0 0 0 3.2.456 5.513 5.513 0 0 1-.22-2.584 5.508 5.508 0 0 1 1.75-3.11 7.57 7.57 0 0 1 5.684-1.867 6.627 6.627 0 0 0-3.338-4.354l.001.002Z"></path><path fill="#66e1ff" stroke="#191919" stroke-linecap="round" stroke-linejoin="round" d="M5.36 6.247a.5.5 0 1 1 .336.942.5.5 0 0 1-.336-.942Z"></path><path fill="#66e1ff" stroke="#191919" stroke-linecap="round" stroke-linejoin="round" d="M10.621 6.252a.5.5 0 1 1 .353.936.5.5 0 0 1-.353-.936Z"></path><path fill="#66e1ff" d="M23.1 13.868a5.794 5.794 0 0 0-2.7-2.754 7.437 7.437 0 0 0-6.674.025 5.54 5.54 0 0 0-2.958 3.642 4.685 4.685 0 0 0 .6 3.467 6.391 6.391 0 0 0 4.349 2.837 7.98 7.98 0 0 0 3.8-.25c.735.286 1.395.748 2.108 1.089a43.145 43.145 0 0 0-.59-1.837 5.994 5.994 0 0 0 1.963-2.168 4.7 4.7 0 0 0 .117-4.051H23.1Z"></path><path fill="#c2f3ff" d="M13.719 13.558a7.44 7.44 0 0 1 6.674-.025 5.795 5.795 0 0 1 2.7 2.754c.099.227.18.46.241.7a4.719 4.719 0 0 0-.241-3.123 5.795 5.795 0 0 0-2.7-2.754 7.438 7.438 0 0 0-6.674.025 5.542 5.542 0 0 0-2.958 3.642 4.463 4.463 0 0 0 .067 2.181 5.6 5.6 0 0 1 2.891-3.4Z"></path><path stroke="#191919" stroke-linecap="round" stroke-linejoin="round" d="M23.1 13.868a5.794 5.794 0 0 0-2.7-2.754 7.437 7.437 0 0 0-6.674.025 5.54 5.54 0 0 0-2.958 3.642 4.685 4.685 0 0 0 .6 3.467 6.391 6.391 0 0 0 4.349 2.837 7.98 7.98 0 0 0 3.8-.25c.735.286 1.395.748 2.108 1.089a43.145 43.145 0 0 0-.59-1.837 5.994 5.994 0 0 0 1.963-2.168 4.7 4.7 0 0 0 .117-4.051H23.1Z"></path><path fill="#66e1ff" d="M14.953 13.552a.507.507 0 0 1 .641.646.5.5 0 1 1-.641-.646"></path><path stroke="#191919" stroke-linecap="round" stroke-linejoin="round" d="M14.953 13.552a.507.507 0 0 1 .641.646v0a.5.5 0 1 1-.641-.646"></path><g><path fill="#66e1ff" d="M19.3 13.54a.49.49 0 0 1 .482.7.49.49 0 0 1-.773.133.771.771 0 0 1-.172-.362.548.548 0 0 1 .463-.47"></path><path stroke="#191919" stroke-linecap="round" stroke-linejoin="round" d="M19.3 13.54a.49.49 0 0 1 .482.7.49.49 0 0 1-.773.133.771.771 0 0 1-.172-.362.548.548 0 0 1 .463-.47"></path></g></svg>