<svg xmlns="http://www.w3.org/2000/svg" viewBox="0 0 24 24" height="32" width="32">
    <g>
        <path d="M14.68 5.54A1.5 1.5 0 1 0 13.19 7a1.49 1.49 0 0 0 1.49-1.46Z" fill="#ffffff"></path>
        <path
            d="M11.12 12.9a.19.19 0 0 0 .17.1h9a.21.21 0 0 0 .17-.1.19.19 0 0 0 0-.19l-3.23-5.17a.35.35 0 0 0-.31-.18.38.38 0 0 0-.32.18l-1.81 2.89a.17.17 0 0 1-.16.09.16.16 0 0 1-.15-.09l-.65-1a.37.37 0 0 0-.32-.17.37.37 0 0 0-.31.17l-2.07 3.31a.19.19 0 0 0-.01.16Z"
            fill="#ffffff"></path>
        <path
            d="M23.41 3 21 .59A2 2 0 0 0 19.59 0H8a2 2 0 0 0-2 2v9.07a.26.26 0 0 0 .07.17l1.5 1.5a.25.25 0 0 0 .43-.17V2.5a.5.5 0 0 1 .5-.5h10.88a.47.47 0 0 1 .35.15l2.12 2.12a.47.47 0 0 1 .15.35V18a.5.5 0 0 1-.5.5h-7.82a.25.25 0 0 0-.24.33c.17.44.36 1.16.45 1.49a.25.25 0 0 0 .24.18H22a2 2 0 0 0 2-2V4.41A2 2 0 0 0 23.41 3Z"
            fill="#ffffff"></path>
        <path
            d="m11.15 18.45-6.58-6.58A2.72 2.72 0 0 0 1 11.59a2.64 2.64 0 0 0-.2 3.89l6.68 6.67a.25.25 0 0 0 .36 0l3.35-3.35a.24.24 0 0 0-.04-.35Z"
            fill="#ffffff"></path>
        <path
            d="m11.94 20.14-2.81 2.8a.26.26 0 0 0 .13.43l3.14.63a.57.57 0 0 0 .45-.13.51.51 0 0 0 .14-.45l-.63-3.15a.25.25 0 0 0-.42-.13Z"
            fill="#ffffff"></path>
    </g>
</svg>