<svg xmlns="http://www.w3.org/2000/svg" fill="none" viewBox="-0.5 -0.5 48 48" height="48" width="48"><path fill="#e4f1f5" d="M37.614 8.813a1.958 1.958 0 0 1 0.574 1.385V44.063a1.958 1.958 0 0 1 -1.958 1.958h-33.292a1.958 1.958 0 0 1 -1.958 -1.958v-41.125a1.958 1.958 0 0 1 1.958 -1.958h26.032a1.958 1.958 0 0 1 1.385 0.574L37.614 8.813z" stroke-width="1"></path><path fill="#ffffff" d="M37.614 8.813 30.354 1.553A1.958 1.958 0 0 0 28.97 0.979H2.938a1.958 1.958 0 0 0 -1.958 1.958v41.125a1.958 1.958 0 0 0 0.574 1.385L37.843 9.157a1.847 1.847 0 0 0 -0.229 -0.345z" stroke-width="1"></path><path fill="#ffef5e" d="M12.729 18.604a3.917 3.917 0 1 0 0 -7.833 3.917 3.917 0 0 0 0 7.833z" stroke-width="1"></path><path fill="#78eb7b" d="M23.351 19.932a0.979 0.979 0 0 0 -1.661 0L16.522 28.2l-2.105 -3.372a0.979 0.979 0 0 0 -1.661 0L6.854 34.271h25.458l-8.961 -14.339z" stroke-width="1"></path><path stroke="#191919" stroke-linecap="round" stroke-linejoin="round" d="M12.729 18.604a3.917 3.917 0 1 0 0 -7.833 3.917 3.917 0 0 0 0 7.833zm11.836 3.27 -1.214 -1.943a0.979 0.979 0 0 0 -1.661 0L16.522 28.2l-2.105 -3.372a0.979 0.979 0 0 0 -1.661 0L6.854 34.271h9.792" stroke-width="1"></path><path stroke="#191919" stroke-linecap="round" stroke-linejoin="round" d="M20.563 46.021h-17.625a1.958 1.958 0 0 1 -1.958 -1.958v-41.125a1.958 1.958 0 0 1 1.958 -1.958h26.032a1.958 1.958 0 0 1 1.385 0.574L37.614 8.813a1.958 1.958 0 0 1 0.574 1.385V18.604" stroke-width="1"></path><path fill="#78eb7b" d="M34.271 45.999a11.75 11.75 0 1 0 0 -23.5 11.75 11.75 0 0 0 0 23.5z" stroke-width="1"></path><path fill="#c9f7ca" d="M34.271 22.499a11.75 11.75 0 0 0 -7.722 20.594l16.564 -16.564a11.705 11.705 0 0 0 -8.842 -4.03z" stroke-width="1"></path><path stroke="#191919" stroke-linecap="round" stroke-linejoin="round" d="M34.271 45.999a11.75 11.75 0 1 0 0 -23.5 11.75 11.75 0 0 0 0 23.5v0zm0 -17.625v11.75m5.875 -5.875h-11.75" stroke-width="1"></path></svg>