<svg xmlns="http://www.w3.org/2000/svg" fill="none" viewBox="0 0 14 14" height="32" width="32"><g id="button-pause-2--button-television-buttons-movies-tv-pause-video-controls"><path id="Union" fill="#000000" fill-rule="evenodd" d="M1.132 1.81a.96.96 0 0 1 .774-.919 7.399 7.399 0 0 1 2.825 0c.443.08.757.47.775.92l.04.937c.058 1.284.116 2.613.116 3.975s-.058 2.692-.115 3.975c-.014.316-.028.628-.04.938a.961.961 0 0 1-.776.92 7.397 7.397 0 0 1-2.825 0 .961.961 0 0 1-.774-.92l-.041-.938C1.034 9.415.975 8.085.975 6.723s.06-2.691.116-3.975c.014-.315.028-.628.04-.938Zm7.595 0a.962.962 0 0 1 .775-.919 7.399 7.399 0 0 1 2.825 0c.443.08.756.47.775.92l.04.937c.057 1.284.116 2.613.116 3.975s-.059 2.692-.115 3.975l-.041.938a.961.961 0 0 1-.775.92 7.397 7.397 0 0 1-2.825 0 .961.961 0 0 1-.775-.92l-.04-.938C8.63 9.415 8.57 8.085 8.57 6.723s.059-2.691.116-3.975l.04-.938Z" clip-rule="evenodd"></path></g></svg>