<svg xmlns="http://www.w3.org/2000/svg" viewBox="0 0 24 24" height="32" width="32">
    <g>
        <path
            d="M18.5 3h-13A1.5 1.5 0 0 0 4 4.5v15A1.5 1.5 0 0 0 5.5 21h13a1.5 1.5 0 0 0 1.5-1.5v-15A1.5 1.5 0 0 0 18.5 3Zm-3.83 9.79-4.44 2.59a.9.9 0 0 1-1.35-.79V9.41a.9.9 0 0 1 1.35-.79l4.44 2.59a.91.91 0 0 1 0 1.58Z"
            fill="#ffffff"></path>
        <path d="M1 5a1 1 0 0 0-1 1v12.5a1 1 0 0 0 2 0V6a1 1 0 0 0-1-1Z" fill="#ffffff"></path>
        <path d="M23 5a1 1 0 0 0-1 1v12.5a1 1 0 0 0 2 0V6a1 1 0 0 0-1-1Z" fill="#ffffff"></path>
    </g>
</svg>